<svg xmlns="http://www.w3.org/2000/svg" width="1600" height="1200" viewBox="0 0 1600 1200" role="img" aria-labelledby="title desc">
  <title id="title">Premium furniture showroom scene</title>
  <desc id="desc">Warm showroom interior with custom sofas, tables, wood tones, and soft fabrics.</desc>
  <defs>
    <linearGradient id="wall" x1="0" y1="0" x2="1" y2="1">
      <stop offset="0" stop-color="#f7efe2"/>
      <stop offset="0.55" stop-color="#eadbc5"/>
      <stop offset="1" stop-color="#d8bd93"/>
    </linearGradient>
    <linearGradient id="wood" x1="0" y1="0" x2="1" y2="0">
      <stop offset="0" stop-color="#6f4f2f"/>
      <stop offset="1" stop-color="#34251d"/>
    </linearGradient>
    <filter id="soft" x="-20%" y="-20%" width="140%" height="140%">
      <feDropShadow dx="0" dy="28" stdDeviation="30" flood-color="#3c2c20" flood-opacity=".22"/>
    </filter>
  </defs>
  <rect width="1600" height="1200" fill="url(#wall)"/>
  <rect y="760" width="1600" height="440" fill="#b89868"/>
  <path d="M0 760h1600v80H0z" fill="#8b6842" opacity=".24"/>
  <rect x="150" y="180" width="1300" height="540" rx="42" fill="#fff9ef" opacity=".52"/>
  <rect x="205" y="250" width="360" height="320" rx="20" fill="#d7b98a"/>
  <rect x="620" y="250" width="360" height="320" rx="20" fill="#7a5b3c"/>
  <rect x="1035" y="250" width="360" height="320" rx="20" fill="#d6c6ae"/>
  <g filter="url(#soft)">
    <rect x="300" y="655" width="720" height="210" rx="54" fill="#e8dcc8"/>
    <rect x="250" y="585" width="190" height="280" rx="58" fill="#d4c3aa"/>
    <rect x="885" y="585" width="190" height="280" rx="58" fill="#d4c3aa"/>
    <rect x="405" y="535" width="520" height="180" rx="44" fill="#efe4d2"/>
    <rect x="510" y="572" width="150" height="104" rx="28" fill="#bda277"/>
    <rect x="690" y="572" width="150" height="104" rx="28" fill="#8a6847"/>
  </g>
  <g filter="url(#soft)">
    <ellipse cx="1110" cy="895" rx="260" ry="68" fill="#67452e" opacity=".2"/>
    <rect x="930" y="792" width="360" height="52" rx="26" fill="url(#wood)"/>
    <path d="M1000 844h42l-36 118h-42zM1180 844h42l36 118h-42z" fill="#3f2c20"/>
  </g>
  <circle cx="1260" cy="172" r="70" fill="#c0a16b" opacity=".72"/>
</svg>
